<svg width="58" height="58" viewBox="0 0 58 58" fill="none" xmlns="http://www.w3.org/2000/svg">
<g filter="url(#filter0_d_3_37)">
<path fill-rule="evenodd" clip-rule="evenodd" d="M49.2981 18.1013L51.0387 19.8413C52.4167 21.1946 53.1661 23.0313 53.1661 24.9646C53.1903 26.898 52.4409 28.7371 51.0871 30.1121C51.0709 30.1299 51.0548 30.1454 51.0387 30.161C51.0307 30.1688 51.0226 30.1766 51.0145 30.1846L49.2981 31.9005C48.6212 32.5771 48.2344 33.4955 48.2344 34.4646V36.9513C48.2344 40.963 44.9707 44.2279 40.9575 44.2279H38.4675C37.5005 44.2279 36.5818 44.6121 35.9049 45.2888L34.1643 47.0288C32.7379 48.4571 30.8764 49.1555 29.0149 49.1555C27.1534 49.1555 25.2919 48.4571 23.8655 47.0554L22.1007 45.2888C21.4238 44.6121 20.5051 44.2279 19.5381 44.2279H17.048C13.0349 44.2279 9.77124 40.963 9.77124 36.9513V34.4646C9.77124 33.4955 9.38444 32.5771 8.70753 31.8763L6.96689 30.1605C4.13837 27.3354 4.11419 22.7171 6.94272 19.8679L8.70753 18.1013C9.38444 17.4246 9.77124 16.5063 9.77124 15.5155V13.0505C9.77124 9.03881 13.0349 5.77873 17.048 5.77873H19.5381C20.5051 5.77873 21.4238 5.38964 22.1007 4.71298L23.8413 2.97298C26.6699 0.123727 31.2874 0.123727 34.1401 2.95123L35.9049 4.71298C36.5818 5.38964 37.5005 5.77873 38.4675 5.77873H40.9575C44.9707 5.77873 48.2344 9.03881 48.2344 13.0505V15.5421C48.2344 16.5063 48.6212 17.4246 49.2981 18.1013ZM22.7776 33.3264C23.3578 33.3264 23.8897 33.1089 24.2765 32.698L36.7027 20.2788C37.5246 19.4571 37.5246 18.1014 36.7027 17.2797C35.8807 16.4604 34.551 16.4604 33.7291 17.2797L21.3029 29.7014C20.4809 30.523 20.4809 31.8764 21.3029 32.698C21.6897 33.1089 22.2216 33.3264 22.7776 33.3264ZM33.1008 31.1996C33.1008 32.3838 34.0437 33.3263 35.2283 33.3263C36.3887 33.3263 37.3315 32.3838 37.3315 31.1996C37.3315 30.042 36.3887 29.0971 35.2283 29.0971C34.0437 29.0971 33.1008 30.042 33.1008 31.1996ZM22.8019 16.6754C23.9624 16.6754 24.9052 17.6179 24.9052 18.7779C24.9052 19.9645 23.9624 20.9046 22.8019 20.9046C21.6415 20.9046 20.6745 19.9645 20.6745 18.7779C20.6745 17.6179 21.6415 16.6754 22.8019 16.6754Z" fill="#FDC886"/>
</g>
<defs>
<filter id="filter0_d_3_37" x="0.833374" y="0.833313" width="56.3333" height="56.3221" filterUnits="userSpaceOnUse" color-interpolation-filters="sRGB">
<feFlood flood-opacity="0" result="BackgroundImageFix"/>
<feColorMatrix in="SourceAlpha" type="matrix" values="0 0 0 0 0 0 0 0 0 0 0 0 0 0 0 0 0 0 127 0" result="hardAlpha"/>
<feOffset dy="4"/>
<feGaussianBlur stdDeviation="2"/>
<feComposite in2="hardAlpha" operator="out"/>
<feColorMatrix type="matrix" values="0 0 0 0 0 0 0 0 0 0 0 0 0 0 0 0 0 0 0.25 0"/>
<feBlend mode="normal" in2="BackgroundImageFix" result="effect1_dropShadow_3_37"/>
<feBlend mode="normal" in="SourceGraphic" in2="effect1_dropShadow_3_37" result="shape"/>
</filter>
</defs>
</svg>
