<svg width="28" height="30" viewBox="0 0 28 30" fill="none" xmlns="http://www.w3.org/2000/svg">
<path d="M10.2326 27.4289V23.0972C10.2326 21.9914 11.1356 21.095 12.2494 21.095H16.3212C16.8561 21.095 17.3691 21.3059 17.7473 21.6814C18.1256 22.0569 18.338 22.5662 18.338 23.0972V27.4289C18.3347 27.8887 18.5163 28.3307 18.8425 28.657C19.1688 28.9832 19.6127 29.1667 20.0758 29.1667H22.8538C24.1511 29.17 25.3966 28.6607 26.3152 27.7512C27.2337 26.8416 27.75 25.6066 27.75 24.3186V11.9781C27.75 10.9377 27.2854 9.95082 26.4815 9.28332L17.0315 1.79086C15.3877 0.47717 13.0324 0.519585 11.4376 1.89159L2.20327 9.28332C1.36138 9.93114 0.858198 10.9209 0.833332 11.9781V24.306C0.833332 26.9905 3.02546 29.1667 5.72958 29.1667H8.44408C9.4059 29.1667 10.1876 28.3963 10.1945 27.4415L10.2326 27.4289Z" fill="#5A4FCF"/>
</svg>
