<svg width="37" height="42" viewBox="0 0 37 42" fill="none" xmlns="http://www.w3.org/2000/svg">
<path fill-rule="evenodd" clip-rule="evenodd" d="M17.8919 41.6535C18.1226 41.774 18.3806 41.8353 18.6385 41.8333C18.8965 41.8312 19.1524 41.7679 19.3852 41.6453L26.8183 37.6718C28.9261 36.5482 30.5768 35.2918 31.8645 33.8291C34.6645 30.6421 36.1935 26.5746 36.1663 22.3805L36.0782 8.54582C36.0698 6.95233 35.0232 5.53046 33.4753 5.0136L19.6474 0.374112C18.8147 0.0921886 17.9024 0.0983174 17.0844 0.388413L3.30884 5.19338C1.76937 5.73066 0.741661 7.16276 0.750051 8.75828L0.838141 22.5828C0.865406 26.783 2.44682 30.8321 5.29296 33.9864C6.59333 35.4287 8.25864 36.6667 10.3896 37.7719L17.8919 41.6535ZM15.9243 25.3933C16.2347 25.6916 16.6374 25.8386 17.0401 25.8346C17.4428 25.8325 17.8434 25.6813 18.1496 25.379L26.2727 17.3707C26.8831 16.7681 26.8768 15.7997 26.2601 15.2052C25.6414 14.6107 24.6452 14.6148 24.0348 15.2175L17.017 22.1348L14.1436 19.3728C13.5249 18.7783 12.5307 18.7844 11.9183 19.3871C11.308 19.9897 11.3143 20.9581 11.933 21.5526L15.9243 25.3933Z" fill="#FDC886"/>
</svg>
