<svg width="120" height="25" viewBox="0 0 120 25" fill="none" xmlns="http://www.w3.org/2000/svg">
<path d="M10.5734 4.89058C11.0224 3.50861 12.9776 3.50861 13.4266 4.89058L14.3574 7.75532C14.5582 8.37336 15.1341 8.7918 15.784 8.7918H18.7962C20.2492 8.7918 20.8534 10.6512 19.6778 11.5053L17.2409 13.2758C16.7152 13.6578 16.4952 14.3348 16.696 14.9529L17.6268 17.8176C18.0759 19.1996 16.4941 20.3488 15.3186 19.4947L12.8817 17.7242C12.3559 17.3422 11.6441 17.3422 11.1183 17.7242L8.68143 19.4947C7.50586 20.3488 5.92413 19.1996 6.37316 17.8176L7.30397 14.9529C7.50479 14.3348 7.2848 13.6578 6.75907 13.2758L4.32217 11.5053C3.1466 10.6512 3.75076 8.7918 5.20385 8.7918H8.21602C8.86586 8.7918 9.44179 8.37336 9.6426 7.75532L10.5734 4.89058Z" fill="#FFB800"/>
<path d="M34.5734 4.89058C35.0224 3.50861 36.9776 3.50861 37.4266 4.89058L38.3574 7.75532C38.5582 8.37336 39.1341 8.7918 39.784 8.7918H42.7962C44.2492 8.7918 44.8534 10.6512 43.6778 11.5053L41.2409 13.2758C40.7152 13.6578 40.4952 14.3348 40.696 14.9529L41.6268 17.8176C42.0759 19.1996 40.4941 20.3488 39.3186 19.4947L36.8817 17.7242C36.3559 17.3422 35.6441 17.3422 35.1183 17.7242L32.6814 19.4947C31.5059 20.3488 29.9241 19.1996 30.3732 17.8176L31.304 14.9529C31.5048 14.3348 31.2848 13.6578 30.7591 13.2758L28.3222 11.5053C27.1466 10.6512 27.7508 8.7918 29.2038 8.7918H32.216C32.8659 8.7918 33.4418 8.37336 33.6426 7.75532L34.5734 4.89058Z" fill="#FFB800"/>
<path d="M58.5734 4.89058C59.0224 3.50861 60.9776 3.50861 61.4266 4.89058L62.3574 7.75532C62.5582 8.37336 63.1341 8.7918 63.784 8.7918H66.7962C68.2492 8.7918 68.8534 10.6512 67.6778 11.5053L65.2409 13.2758C64.7152 13.6578 64.4952 14.3348 64.696 14.9529L65.6268 17.8176C66.0759 19.1996 64.4941 20.3488 63.3186 19.4947L60.8817 17.7242C60.3559 17.3422 59.6441 17.3422 59.1183 17.7242L56.6814 19.4947C55.5059 20.3488 53.9241 19.1996 54.3732 17.8176L55.304 14.9529C55.5048 14.3348 55.2848 13.6578 54.7591 13.2758L52.3222 11.5053C51.1466 10.6512 51.7508 8.7918 53.2038 8.7918H56.216C56.8659 8.7918 57.4418 8.37336 57.6426 7.75532L58.5734 4.89058Z" fill="#FFB800"/>
<path d="M82.5734 4.89058C83.0224 3.50861 84.9776 3.50861 85.4266 4.89058L86.3574 7.75532C86.5582 8.37336 87.1341 8.7918 87.784 8.7918H90.7962C92.2492 8.7918 92.8534 10.6512 91.6778 11.5053L89.2409 13.2758C88.7152 13.6578 88.4952 14.3348 88.696 14.9529L89.6268 17.8176C90.0759 19.1996 88.4941 20.3488 87.3186 19.4947L84.8817 17.7242C84.3559 17.3422 83.6441 17.3422 83.1183 17.7242L80.6814 19.4947C79.5059 20.3488 77.9241 19.1996 78.3732 17.8176L79.304 14.9529C79.5048 14.3348 79.2848 13.6578 78.7591 13.2758L76.3222 11.5053C75.1466 10.6512 75.7508 8.7918 77.2038 8.7918H80.216C80.8659 8.7918 81.4418 8.37336 81.6426 7.75532L82.5734 4.89058Z" fill="#FFB800"/>
<path d="M106.573 4.89058C107.022 3.50861 108.978 3.50861 109.427 4.89058L110.357 7.75532C110.558 8.37336 111.134 8.7918 111.784 8.7918H114.796C116.249 8.7918 116.853 10.6512 115.678 11.5053L113.241 13.2758C112.715 13.6578 112.495 14.3348 112.696 14.9529L113.627 17.8176C114.076 19.1996 112.494 20.3488 111.319 19.4947L108.882 17.7242C108.356 17.3422 107.644 17.3422 107.118 17.7242L104.681 19.4947C103.506 20.3488 101.924 19.1996 102.373 17.8176L103.304 14.9529C103.505 14.3348 103.285 13.6578 102.759 13.2758L100.322 11.5053C99.1466 10.6512 99.7508 8.7918 101.204 8.7918H104.216C104.866 8.7918 105.442 8.37336 105.643 7.75532L106.573 4.89058Z" fill="#FFB800"/>
</svg>
